# xmcd
#
# Track frame offsets:
#	150
#	14387
#	34778
#	48512
#	63393
#	75895
#	92873
#	109986
#	129118
#	144978
#	162988
#	183803
#	201689
#	216960
#
# Disc length: 3069 seconds
# Revision: 0
# Processed by: cddbd v1.5.2PL0 Copyright (c) Steve Scherf et al.
# Submitted via: dBpowerAMP V12.0
#
DISCID=be0bfb0e
DTITLE=Thomm Jutz - To Live in Two Worlds Volume 1
DYEAR=2020
DGENRE=Bluegrass
TTITLE0=Mill Town Blues
TTITLE1=I Long To Hear Them Testify
TTITLE2=Calling Me Home
TTITLE3=Where The Bluebirds Call
TTITLE4=Moving Up, Moving On
TTITLE5=Blind Alfred Reed
TTITLE6=Hartford's Bend
TTITLE7=Jimmie Rodgers Rode A Train
TTITLE8=The Old Road
TTITLE9=Mighty Hard To Travel
TTITLE10=Wilmer McLean
TTITLE11=Shelton Laurel Valley
TTITLE12=Yesterday And Tomorrow
TTITLE13=What'll They Think Up Last
EXTD=
EXTT0=
EXTT1=
EXTT2=
EXTT3=
EXTT4=
EXTT5=
EXTT6=
EXTT7=
EXTT8=
EXTT9=
EXTT10=
EXTT11=
EXTT12=
EXTT13=
PLAYORDER=
